<svg viewBox="0 0 24 24" fill="currentColor" width="32" height="32" xmlns="http://www.w3.org/2000/svg" xmlns:xlink="http://www.w3.org/1999/xlink">
    <path d="M20.785 3.193C14.744 2.334 8.714 2.332 2.659 3.195 1.094 3.429 0 4.91 0 6.498v11c0 1.588 0.908 3.07 2.482 3.306 3.021 0.43 5.916 0.647 8.968 0.647s6.406-0.218 9.434-0.648C22.451 20.568 24 19.086 24 17.498V6.5c0-1.588-1.639-3.07-3.215-3.307zM2 6.5c0-0.605 0.178-1.238 0.764-1.326 2.642-0.375 5.186-0.575 7.829-0.612l-3.919 6.956H2V6.5zM22 17.498c0 0.605-0.908 1.237-1.496 1.325-5.855 0.833-11.709 0.831-17.549 1e-3C2.359 18.735 2 18.104 2 17.498v-3.98h5.861l1.771-2.758 0.849 7.18 5.142-4.422H22zM22 11.518h-7.088l-2.858 2.813-1.091-9.776c0.164-1e-3 0.323-9e-3 0.487-9e-3 2.958 0 6.218 0.212 9.138 0.626C21.184 5.262 22 5.894 22 6.498zM16.002 6.998h0.996V8h-0.996zM18 6.998h1.002V8H18z" />
</svg>