<svg color="#272727" fill="currentColor" viewBox="0 0 16 16" xmlns="http://www.w3.org/2000/svg" xmlns:xlink="http://www.w3.org/1999/xlink"><path d="M14 6L10 6L10 2L14 2L14 6ZM11 5L13 5L13 3L11 3L11 5Z"></path><path d="M8.5 7.5L8.5 4.5L4.5 4.5L4.5 11.5L11.5 11.5L11.5 7.5L8.5 7.5ZM5.5 5.5L7.5 5.5L7.5 7.5L5.5 7.5L5.5 5.5ZM7.5 10.5L5.5 10.5L5.5 8.5L7.5 8.5L7.5 10.5ZM10.5 10.5L8.5 10.5L8.5 8.5L10.5 8.5L10.5 10.5Z"></path><path d="M13 14L3 14A1.0012 1.0012 0 0 1 2 13L2 3A1.0012 1.0012 0 0 1 3 2L8 2L8 3L3 3L3 13L13 13L13 8L14 8L14 13A1.0012 1.0012 0 0 1 13 14Z"></path></svg>