<svg color="#272727" fill="currentColor" viewBox="0 0 16 16" xmlns="http://www.w3.org/2000/svg" xmlns:xlink="http://www.w3.org/1999/xlink"><path d="M13.8567 2.1287C9.8293 1.556 5.8093 1.5547 1.7727 2.13C0.7293 2.286 0 3.2733 0 4.332L0 11.6653C0 12.724 0.6053 13.712 1.6547 13.8693C3.6687 14.156 5.5987 14.3007 7.6333 14.3007C9.668 14.3007 11.904 14.1553 13.9227 13.8687C14.9673 13.712 16 12.724 16 11.6653L16 4.3333C16 3.2747 14.9073 2.2867 13.8567 2.1287L13.8567 2.1287ZM1.3333 4.3333C1.3333 3.93 1.452 3.508 1.8427 3.4493C3.604 3.1993 5.3 3.066 7.062 3.0413L4.4493 7.6787L1.3333 7.6787L1.3333 4.3333L1.3333 4.3333ZM14.6667 11.6653C14.6667 12.0687 14.0613 12.49 13.6693 12.5487C9.766 13.104 5.8633 13.1027 1.97 12.5493C1.5727 12.49 1.3333 12.0693 1.3333 11.6653L1.3333 9.012L5.2407 9.012L6.4213 7.1733L6.9873 11.96L10.4153 9.012L14.6667 9.012L14.6667 11.6653ZM14.6667 7.6787L9.9413 7.6787L8.036 9.554L7.3087 3.0367C7.418 3.036 7.524 3.0307 7.6333 3.0307C9.6053 3.0307 11.7787 3.172 13.7253 3.448C14.1227 3.508 14.6667 3.9293 14.6667 4.332L14.6667 7.6787ZM10.668 4.6653L11.332 4.6653L11.332 5.3333L10.668 5.3333L10.668 4.6653ZM12 4.6653L12.668 4.6653L12.668 5.3333L12 5.3333L12 4.6653Z"></path></svg>