<svg color="#272727" fill="currentColor" viewBox="0 0 16 16" xmlns="http://www.w3.org/2000/svg" xmlns:xlink="http://www.w3.org/1999/xlink">
  
  <polygon points="11.085 8 9.795 9.29 10.5 10 12.5 8 10.5 6 9.79 6.705"></polygon>
  <polygon points="7.75 10.5 6.79255 10.21145 8.25 5.5 9.20745 5.78855"></polygon>
  <polygon points="4.915 8 6.205 6.71 5.5 6 3.5 8 5.5 10 6.21 9.295"></polygon>
  <circle cx="9.5" cy="14" r="0.5"></circle>
  <path d="M11 14.5L11 13.5C12.3784 13.5 13.5 12.3784 13.5 11L13.5 5C13.5 3.6216 12.3784 2.5 11 2.5L8 2.5L8 1.5L11 1.5C12.9297 1.5 14.5 3.0701 14.5 5L14.5 11C14.5 12.9297 12.9297 14.5 11 14.5Z"></path>
  <circle cx="6.5" cy="2" r="0.5"></circle>
  <path d="M8 14.5L5 14.5C3.0703 14.5 1.5 12.9297 1.5 11L1.5 5C1.5 3.0701 3.0703 1.5 5 1.5L5 2.5C3.6216 2.5 2.5 3.6216 2.5 5L2.5 11C2.5 12.3784 3.6216 13.5 5 13.5L8 13.5L8 14.5Z"></path>
  
</svg>