<svg color="#272727" fill="currentColor" viewBox="0 0 16 16" xmlns="http://www.w3.org/2000/svg" xmlns:xlink="http://www.w3.org/1999/xlink"><circle cx="11.5" cy="6" r="1"></circle><path d="M14 2.5L8.12 2.5A4 4 0 1 0 3 8.46L3 13.5A1 1 0 0 0 4 14.5L14 14.5A1 1 0 0 0 15 13.5L15 3.5A1 1 0 0 0 14 2.5ZM2 5A3 3 0 0 1 7.595 3.5L4 3.5L4 4.5L7.955 4.5A3.32 3.32 0 0 1 8 5A3.32 3.32 0 0 1 7.955 5.5L5 5.5L5 6.5L7.595 6.5A3 3 0 0 1 2 5ZM14 13.5L4 13.5L6.5 11L7.295 11.795A1 1 0 0 0 8.705 11.795L11.5 9L14 11.5L14 13.5ZM14 10.085L12.205 8.29A1 1 0 0 0 10.795 8.29L8 11.085L7.205 10.29A1 1 0 0 0 5.795 10.29L4 12.085L4 8.87A4.12 4.12 0 0 0 5 9A4 4 0 0 0 9 5A3.95 3.95 0 0 0 8.705 3.5L14 3.5L14 10.085Z"></path></svg>