<svg color="#dadada" fill="currentColor" viewBox="0 0 16 16" xmlns="http://www.w3.org/2000/svg" xmlns:xlink="http://www.w3.org/1999/xlink"><path d="M13.3333 2L2.6667 2C1.9313 2 1.3333 2.598 1.3333 3.3333L1.3333 12.6667C1.3333 13.402 1.9313 14 2.6667 14L13.3333 14C14.0687 14 14.6667 13.402 14.6667 12.6667L14.6667 3.3333C14.6667 2.598 14.0687 2 13.3333 2ZM2.6667 12.6667L2.6667 4.6667L13.3333 4.6667L13.3347 12.6667L2.6667 12.6667Z"></path><path d="M6.1953 6.1953L3.724 8.6667L6.1953 11.138L7.138 10.1953L5.6093 8.6667L7.138 7.138L6.1953 6.1953ZM9.8047 6.1953L8.862 7.138L10.3907 8.6667L8.862 10.1953L9.8047 11.138L12.276 8.6667L9.8047 6.1953Z"></path></svg>