<svg color="#dadada" fill="currentColor" viewBox="0 0 16 16" xmlns="http://www.w3.org/2000/svg" xmlns:xlink="http://www.w3.org/1999/xlink"><path d="M13.5 6L13.5 7L14 7L14 9A1.5 1.5 0 0 1 11 9L11 7L11.5 7L11.5 6L10 6L10 9A2.5042 2.5042 0 0 0 12 11.4495L12 12A2 2 0 0 1 8 12L8 10.9079A1.5 1.5 0 1 0 7 10.9079L7 12A3 3 0 0 0 13 12L13 11.4495A2.5042 2.5042 0 0 0 15 9L15 6L13.5 6ZM7.5 9A0.5 0.5 0 1 1 7 9.5A0.5004 0.5004 0 0 1 7.5 9Z"></path><path d="M13 2L11 2L11 1L10 1L10 2L6 2L6 1L5 1L5 2L3 2A1 1 0 0 0 2 3L2 13A1 1 0 0 0 3 14L5 14L5 13L3 13L3 3L5 3L5 4L6 4L6 3L10 3L10 4L11 4L11 3L13 3L13 5L14 5L14 3A1 1 0 0 0 13 2Z"></path></svg>